<?xml version="1.0" encoding="iso-8859-1"?>
<!-- Generator: Adobe Illustrator 19.0.0, SVG Export Plug-In . SVG Version: 6.00 Build 0)  -->
<svg version="1.1" id="Layer_1" xmlns="http://www.w3.org/2000/svg" xmlns:xlink="http://www.w3.org/1999/xlink" x="0px" y="0px"
	 viewBox="0 0 377.012 377.012" style="enable-background:new 0 0 377.012 377.012;" xml:space="preserve">
<g>
	<path style="fill:#3E4A57;" d="M123.934,188.7V96.047c0-8.024,6.566-14.591,14.591-14.591h194.79
		c8.025,0,14.591,6.566,14.591,14.591V188.7H123.934z"/>
	<path style="fill:#A4A9AD;" d="M347.907,188.7v173.722c0,8.023-6.566,14.59-14.591,14.59h-194.79
		c-8.025,0-14.591-6.566-14.591-14.59V188.7H347.907z"/>
	<path style="fill:#5C6670;" d="M29.105,188.7V96.047c0-8.024,6.566-14.591,14.591-14.591h269.335
		c8.023,0,14.591,6.566,14.591,14.591V188.7H29.105z"/>
	<rect x="58.695" y="122.637" style="fill:#333E48;" width="236.693" height="52.817"/>
	<path style="fill:#C3C6C8;" d="M327.622,188.7v173.722c0,8.023-6.567,14.59-14.591,14.59H43.696
		c-8.025,0-14.591-6.566-14.591-14.59V188.7H327.622z"/>
	<path style="fill:#5C6670;" d="M174.658,237.58c0,4.013-3.283,7.297-7.295,7.297h-38.179c-4.014,0-7.295-3.284-7.295-7.297v-19.914
		c0-4.012,3.282-7.296,7.295-7.296h38.179c4.012,0,7.295,3.284,7.295,7.296V237.58z"/>
	<path style="fill:#5C6670;" d="M242.02,237.58c0,4.013-3.283,7.297-7.296,7.297h-38.18c-4.012,0-7.295-3.284-7.295-7.297v-19.914
		c0-4.012,3.283-7.296,7.295-7.296h38.18c4.013,0,7.296,3.284,7.296,7.296V237.58z"/>
	<path style="fill:#D16A70;" d="M309.382,237.58c0,4.013-3.285,7.297-7.296,7.297h-38.179c-4.013,0-7.295-3.284-7.295-7.297v-19.914
		c0-4.012,3.282-7.296,7.295-7.296h38.179c4.011,0,7.296,3.284,7.296,7.296V237.58z"/>
	<path style="fill:#5C6670;" d="M174.658,291.491c0,4.013-3.283,7.296-7.295,7.296h-38.179c-4.014,0-7.295-3.283-7.295-7.296
		v-19.914c0-4.013,3.282-7.296,7.295-7.296h38.179c4.012,0,7.295,3.283,7.295,7.296V291.491z"/>
	<path style="fill:#5C6670;" d="M242.02,291.491c0,4.013-3.283,7.296-7.296,7.296h-38.18c-4.012,0-7.295-3.283-7.295-7.296v-19.914
		c0-4.013,3.283-7.296,7.295-7.296h38.18c4.013,0,7.296,3.283,7.296,7.296V291.491z"/>
	<path style="fill:#5C6670;" d="M174.658,345.402c0,4.012-3.283,7.295-7.295,7.295h-38.179c-4.014,0-7.295-3.283-7.295-7.295
		v-19.914c0-4.014,3.282-7.296,7.295-7.296h38.179c4.012,0,7.295,3.282,7.295,7.296V345.402z"/>
	<path style="fill:#5C6670;" d="M242.02,345.402c0,4.012-3.283,7.295-7.296,7.295h-38.18c-4.012,0-7.295-3.283-7.295-7.295v-19.914
		c0-4.014,3.283-7.296,7.295-7.296h38.18c4.013,0,7.296,3.282,7.296,7.296V345.402z"/>
	<path style="fill:#3E4A57;" d="M96.467,237.58c0,4.013-3.283,7.297-7.296,7.297h-38.18c-4.012,0-7.295-3.284-7.295-7.297v-19.914
		c0-4.012,3.283-7.296,7.295-7.296h38.18c4.013,0,7.296,3.284,7.296,7.296V237.58z"/>
	<path style="fill:#3E4A57;" d="M96.467,291.491c0,4.013-3.283,7.296-7.296,7.296h-38.18c-4.012,0-7.295-3.283-7.295-7.296v-19.914
		c0-4.013,3.283-7.296,7.295-7.296h38.18c4.013,0,7.296,3.283,7.296,7.296V291.491z"/>
	<path style="fill:#3E4A57;" d="M96.467,345.402c0,4.012-3.283,7.295-7.296,7.295h-38.18c-4.012,0-7.295-3.283-7.295-7.295v-19.914
		c0-4.014,3.283-7.296,7.295-7.296h38.18c4.013,0,7.296,3.282,7.296,7.296V345.402z"/>
	<g>
		<path style="fill:#3E4A57;" d="M256.612,345.402c0,4.012,3.282,7.295,7.295,7.295h38.179c4.011,0,7.296-3.283,7.296-7.295v-73.825
			c0-4.013-3.285-7.296-7.296-7.296h-38.179c-4.013,0-7.295,3.283-7.295,7.296L256.612,345.402L256.612,345.402z"/>
	</g>
	<g>
		<g>
			<polygon style="fill:#FFFFFF;" points="286.862,161.037 283.815,163.837 280.769,161.037 280.769,137.053 283.815,134.254 
				286.862,137.053 			"/>
			<polygon style="fill:#FFFFFF;" points="268.153,161.037 265.105,163.837 262.06,161.037 262.06,137.053 265.105,134.254 
				268.153,137.053 			"/>
			<polygon style="fill:#FFFFFF;" points="269.303,136.369 266.038,133.322 269.303,130.276 279.619,130.276 282.883,133.322 
				279.619,136.369 			"/>
			<polygon style="fill:#FFFFFF;" points="269.303,161.723 266.038,164.769 269.303,167.814 279.619,167.814 282.883,164.769 
				279.619,161.723 			"/>
		</g>
		<g>
			<polygon style="fill:#FFFFFF;" points="256.003,161.037 252.956,163.837 249.909,161.037 249.909,137.053 252.956,134.254 
				256.003,137.053 			"/>
			<polygon style="fill:#FFFFFF;" points="237.292,161.037 234.246,163.837 231.2,161.037 231.2,137.053 234.246,134.254 
				237.292,137.053 			"/>
			<polygon style="fill:#FFFFFF;" points="238.442,136.369 235.178,133.322 238.442,130.276 248.758,130.276 252.023,133.322 
				248.758,136.369 			"/>
			<polygon style="fill:#FFFFFF;" points="238.442,161.723 235.178,164.769 238.442,167.814 248.758,167.814 252.023,164.769 
				248.758,161.723 			"/>
		</g>
		<g>
			<polygon style="fill:#FFFFFF;" points="225.142,161.037 222.095,163.837 219.048,161.037 219.048,137.053 222.095,134.254 
				225.142,137.053 			"/>
			<polygon style="fill:#FFFFFF;" points="206.431,161.037 203.385,163.837 200.339,161.037 200.339,137.053 203.385,134.254 
				206.431,137.053 			"/>
			<polygon style="fill:#FFFFFF;" points="207.582,136.369 204.317,133.322 207.582,130.276 217.898,130.276 221.163,133.322 
				217.898,136.369 			"/>
			<polygon style="fill:#FFFFFF;" points="207.582,161.723 204.317,164.769 207.582,167.814 217.898,167.814 221.163,164.769 
				217.898,161.723 			"/>
		</g>
		<g>
			<polygon style="fill:#FFFFFF;" points="194.281,161.037 191.234,163.837 188.187,161.037 188.187,137.053 191.234,134.254 
				194.281,137.053 			"/>
			<polygon style="fill:#FFFFFF;" points="175.57,161.037 172.525,163.837 169.478,161.037 169.478,137.053 172.525,134.254 
				175.57,137.053 			"/>
			<polygon style="fill:#FFFFFF;" points="176.721,136.369 173.456,133.322 176.721,130.276 187.037,130.276 190.302,133.322 
				187.037,136.369 			"/>
			<polygon style="fill:#FFFFFF;" points="176.721,161.723 173.456,164.769 176.721,167.814 187.037,167.814 190.302,164.769 
				187.037,161.723 			"/>
		</g>
		<g>
			<polygon style="fill:#FFFFFF;" points="163.421,161.037 160.374,163.837 157.326,161.037 157.326,137.053 160.374,134.254 
				163.421,137.053 			"/>
			<polygon style="fill:#FFFFFF;" points="144.71,161.037 141.664,163.837 138.618,161.037 138.618,137.053 141.664,134.254 
				144.71,137.053 			"/>
			<polygon style="fill:#FFFFFF;" points="145.86,136.369 142.595,133.322 145.86,130.276 156.176,130.276 159.441,133.322 
				156.176,136.369 			"/>
			<polygon style="fill:#FFFFFF;" points="145.86,161.723 142.595,164.769 145.86,167.814 156.176,167.814 159.441,164.769 
				156.176,161.723 			"/>
		</g>
		<g>
			<polygon style="fill:#FFFFFF;" points="132.56,161.037 129.513,163.837 126.466,161.037 126.466,137.053 129.513,134.254 
				132.56,137.053 			"/>
			<polygon style="fill:#FFFFFF;" points="113.849,161.037 110.803,163.837 107.757,161.037 107.757,137.053 110.803,134.254 
				113.849,137.053 			"/>
			<polygon style="fill:#FFFFFF;" points="115,136.369 111.734,133.322 115,130.276 125.315,130.276 128.581,133.322 
				125.315,136.369 			"/>
			<polygon style="fill:#FFFFFF;" points="115,161.723 111.734,164.769 115,167.814 125.315,167.814 128.581,164.769 
				125.315,161.723 			"/>
		</g>
		<g>
			<polygon style="fill:#FFFFFF;" points="101.699,161.037 98.652,163.837 95.605,161.037 95.605,137.053 98.652,134.254 
				101.699,137.053 			"/>
		</g>
	</g>
	<g>
		<g>
			<path style="fill:#E8E8E8;" d="M249.909,0c5.097,0,9.229,16.529,9.229,36.918c0,20.391-4.132,36.919-9.229,36.919H128.581
				c-5.097,0-9.23-16.528-9.23-36.919c0-20.389,4.133-36.918,9.23-36.918H249.909z"/>
		</g>
		<path style="fill:#CCCED0;" d="M119.351,36.918c0,20.391,4.133,36.919,9.23,36.919h121.328c5.097,0,9.229-16.528,9.229-36.919
			H119.351z"/>
		<ellipse style="fill:#DCDDDE;" cx="249.908" cy="36.918" rx="9.23" ry="36.918"/>
		<rect x="111.626" y="98.607" style="fill:#3E4A57;" width="137.029" height="11.762"/>
		<rect x="119.351" y="36.918" style="fill:#E8E8E8;" width="121.328" height="73.451"/>
		<g>
			<rect x="126.125" y="87.875" style="fill:#A4A9AD;" width="107.78" height="5.734"/>
			<rect x="126.125" y="73.645" style="fill:#A4A9AD;" width="78.259" height="5.733"/>
			<rect x="126.125" y="59.413" style="fill:#A4A9AD;" width="107.78" height="5.733"/>
			<rect x="126.125" y="45.182" style="fill:#A4A9AD;" width="53.89" height="5.734"/>
			<rect x="126.125" y="30.951" style="fill:#A4A9AD;" width="107.78" height="5.734"/>
		</g>
	</g>
	<g>
		<path style="fill:#3E4A57;" d="M269.979,29.613c1.008,0,1.826,3.271,1.826,7.305c0,4.035-0.818,7.306-1.826,7.306h-20.071
			c-1.008,0-1.827-3.271-1.827-7.306c0-4.034,0.818-7.305,1.827-7.305C249.908,29.613,269.979,29.613,269.979,29.613z"/>
		<rect x="265.252" y="36.918" style="fill:#3E4A57;" width="6.554" height="44.538"/>
	</g>
</g>
<g>
</g>
<g>
</g>
<g>
</g>
<g>
</g>
<g>
</g>
<g>
</g>
<g>
</g>
<g>
</g>
<g>
</g>
<g>
</g>
<g>
</g>
<g>
</g>
<g>
</g>
<g>
</g>
<g>
</g>
</svg>
