<?xml version="1.0" encoding="iso-8859-1"?>
<!-- Generator: Adobe Illustrator 19.1.0, SVG Export Plug-In . SVG Version: 6.00 Build 0)  -->
<svg version="1.1" id="Capa_1" xmlns="http://www.w3.org/2000/svg" xmlns:xlink="http://www.w3.org/1999/xlink" x="0px" y="0px"
	 viewBox="0 0 512 512" style="enable-background:new 0 0 512 512;" xml:space="preserve">
<g>
	<g>
		<path style="fill:#B9BBC1;" d="M448.617,72.023c-4.547-0.383-8.258,2.953-8.594,7.359L439.976,80H72.024l-0.047-0.617
			c-0.336-4.406-4.133-7.734-8.594-7.359c-4.398,0.336-7.695,4.188-7.359,8.594L85.75,475.062
			C87.344,495.773,104.859,512,125.633,512h260.734c20.773,0,38.289-16.227,39.883-36.93l29.727-394.453
			C456.312,76.211,453.015,72.359,448.617,72.023z"/>
	</g>
	<g>
		<path style="fill:#8B8996;" d="M256,80H72.024l-0.047-0.617c-0.336-4.406-4.133-7.734-8.594-7.359
			c-4.398,0.336-7.695,4.188-7.359,8.594L85.75,475.062C87.344,495.773,104.859,512,125.633,512H256V80z"/>
	</g>
	<g>
		<path style="fill:#5C546A;" d="M408.325,0H103.675C90.921,0,79.385,7.574,74.313,19.277L52.845,68.819
			C50.556,74.102,54.428,80,60.185,80h391.629c5.757,0,9.63-5.898,7.34-11.181l-21.468-49.543C432.615,7.574,421.079,0,408.325,0z"
			/>
	</g>
	<g>
		<circle style="fill:#5C546A;" cx="256" cy="408" r="16"/>
	</g>
	<g>
		<path style="fill:#D8DCE1;" d="M272,408h-32c-13.255,0-24-10.745-24-24v-32h80v32C296,397.255,285.255,408,272,408z"/>
	</g>
	<g>
		<path style="fill:#B9BBC1;" d="M256,352h-40v32c0,13.255,10.745,24,24,24h16V352z"/>
	</g>
	<g>
		<circle style="fill:#FFEF43;" cx="256" cy="272" r="96"/>
	</g>
	<g>
		<path style="fill:#FFD200;" d="M160,272c0,53.019,42.98,96,96,96V176C202.98,176,160,218.98,160,272z"/>
	</g>
	<g>
		<path style="fill:#FF4F19;" d="M291.548,260.126h-32.724l5.432-43.937c0.633-4.179-0.826-4.762-3.243-1.294l-39.051,54.756
			c-2.417,3.468-0.936,6.306,3.291,6.306h28.532l-5.859,51.853c-0.633,4.179,0.826,4.762,3.243,1.293l43.67-62.673
			C297.256,262.963,295.775,260.126,291.548,260.126z"/>
	</g>
	<g>
		<path style="fill:#5D647F;" d="M459.154,68.819l-21.468-49.542C432.615,7.574,421.079,0,408.324,0H256v80h195.814
			C457.572,80,461.443,74.102,459.154,68.819z"/>
	</g>
	<g>
		<path style="fill:#5C546A;" d="M456,88H56c-8.837,0-16-7.163-16-16v-8c0-8.837,7.163-16,16-16h400c8.837,0,16,7.163,16,16v8
			C472,80.837,464.836,88,456,88z"/>
	</g>
</g>
<g>
</g>
<g>
</g>
<g>
</g>
<g>
</g>
<g>
</g>
<g>
</g>
<g>
</g>
<g>
</g>
<g>
</g>
<g>
</g>
<g>
</g>
<g>
</g>
<g>
</g>
<g>
</g>
<g>
</g>
</svg>
