<?xml version="1.0" encoding="iso-8859-1"?>
<!-- Generator: Adobe Illustrator 19.0.0, SVG Export Plug-In . SVG Version: 6.00 Build 0)  -->
<svg version="1.1" id="Layer_1" xmlns="http://www.w3.org/2000/svg" xmlns:xlink="http://www.w3.org/1999/xlink" x="0px" y="0px"
	 viewBox="0 0 394 394" style="enable-background:new 0 0 394 394;" xml:space="preserve">
<g>
	<g>
		<polygon style="fill:#C3C6C8;" points="139.214,94.039 60.531,94.039 60.531,341.789 160.732,341.789 160.732,126.799 		"/>
		<polygon style="fill:#DCDDDE;" points="72.54,94.039 0,94.039 0,107.494 34.222,107.494 34.222,341.789 94.058,341.789 
			94.058,126.799 		"/>
		<polygon style="fill:#A4A9AD;" points="84.24,341.789 94.058,341.789 94.058,126.799 84.24,111.852 		"/>
	</g>
	<rect x="314.038" y="126.799" style="fill:#C3C6C8;" width="79.962" height="91.24"/>
	<rect x="314.038" y="218.039" style="fill:#A4A9AD;" width="79.962" height="29.096"/>
	<rect x="314.038" y="247.135" style="fill:#C3C6C8;" width="79.962" height="29.096"/>
	<rect x="314.038" y="276.23" style="fill:#A4A9AD;" width="79.962" height="65.559"/>
	<g>
		<rect x="94.058" y="126.799" style="fill:#DCDDDE;" width="219.98" height="91.24"/>
		<path style="fill:#A4A9AD;" d="M180.912,126.799v8.199c0,3.607,2.952,6.56,6.559,6.56h40.995c3.607,0,6.559-2.952,6.559-6.56
			v-8.199H180.912z"/>
	</g>
	<g>
		<rect x="94.058" y="218.039" style="fill:#C3C6C8;" width="219.98" height="29.096"/>
		<path style="fill:#A4A9AD;" d="M180.912,218.039v8.199c0,3.606,2.952,6.559,6.559,6.559h40.995c3.607,0,6.559-2.952,6.559-6.559
			v-8.199H180.912z"/>
	</g>
	<g>
		<rect x="94.058" y="247.135" style="fill:#DCDDDE;" width="219.98" height="29.096"/>
		<path style="fill:#A4A9AD;" d="M180.912,247.135v8.199c0,3.606,2.952,6.559,6.559,6.559h40.995c3.607,0,6.559-2.952,6.559-6.559
			v-8.199H180.912z"/>
	</g>
	<g>
		<rect x="94.058" y="276.23" style="fill:#C3C6C8;" width="219.98" height="65.559"/>
		<path style="fill:#A4A9AD;" d="M180.912,276.23v8.199c0,3.606,2.952,6.559,6.559,6.559h40.995c3.607,0,6.559-2.952,6.559-6.559
			v-8.199H180.912z"/>
	</g>
	<rect x="257.401" y="94.039" style="fill:#DCDDDE;" width="56.637" height="32.76"/>
	<g>
		<polygon style="fill:#77B8E8;" points="190.767,52.211 332.141,52.211 314.038,94.039 172.664,94.039 		"/>
		<polygon style="fill:#333E48;" points="186.494,84.386 196.242,61.863 257.692,61.863 247.945,84.386 		"/>
		<polygon style="fill:#D16A70;" points="267.47,70.928 271.393,61.863 285.72,61.863 281.797,70.928 		"/>
		<polygon style="fill:#5C6670;" points="261.645,84.386 265.568,75.322 279.895,75.322 275.972,84.386 		"/>
		<polygon style="fill:#5C6670;" points="291.544,70.928 295.467,61.863 309.793,61.863 305.871,70.928 		"/>
		<polygon style="fill:#5C6670;" points="285.72,84.386 289.642,75.322 303.969,75.322 300.046,84.386 		"/>
	</g>
	<rect x="249.575" y="126.799" style="fill:#77B8E8;" width="64.463" height="26.911"/>
	<polygon style="fill:#C3C6C8;" points="314.038,126.799 314.038,94.039 332.141,52.211 394,52.211 394,126.799 	"/>
</g>
<g>
</g>
<g>
</g>
<g>
</g>
<g>
</g>
<g>
</g>
<g>
</g>
<g>
</g>
<g>
</g>
<g>
</g>
<g>
</g>
<g>
</g>
<g>
</g>
<g>
</g>
<g>
</g>
<g>
</g>
</svg>
